# xmcd
#
# Track frame offsets: 
#        150
#        15883
#        33852
#        49994
#        66321
#        84729
#        99050
#        118975
#        136656
#        156685
#        175784
#        190306
#
# Disc length: 2779 seconds
#
# Revision: 0
# Processed by: cddbd v1.5.2PL0 Copyright (c) Steve Scherf et al.
# Submitted via: ExactAudioCopyFreeDBPlugin 1.0
#
DISCID=9a0ad90c
DTITLE=Charlie Wilson - Forever Charlie
DYEAR=2015
DGENRE=Soul
TTITLE0=Somebody Love You
TTITLE1=Touched by an Angel
TTITLE2=Goodnight Kisses
TTITLE3=Just Like Summertime
TTITLE4=Unforgettable (feat. Shaggy)
TTITLE5=Sugar.Honey.Ice.Tea
TTITLE6=My Favorite Part of You
TTITLE7=Infectious (feat. Snoop Dogg)
TTITLE8=Hey Lover
TTITLE9=Things You Do
TTITLE10=Birthday Dress
TTITLE11=Man and You Forever
EXTD=
EXTT0=
EXTT1=
EXTT2=
EXTT3=
EXTT4=
EXTT5=
EXTT6=
EXTT7=
EXTT8=
EXTT9=
EXTT10=
EXTT11=
PLAYORDER=
